General                          : ChattChitto RG - Movies [R2L]
==========
Complete name                    : Law Abiding Citizen UNRATED Director's Cut 2009 720p BDRip H264 [ChattChitto RG]
Format                           : MPEG-4
Format profile                   : Base Media
Codec ID                         : isom
File size                        : 2.19 GiB
Duration                         : 1h 58mn
Overall bit rate                 : 2 650 Kbps
Encoded date                     : UTC 2011-02-04 15:50:08

Video
==========
ID                               : 1
Format                           : AVC
Format/Info                      : Advanced Video Codec
Format profile                   : High@L4.0
Format settings, CABAC           : Yes
Format settings, ReFrames        : 4 frames
Codec ID                         : avc1
Codec ID/Info                    : Advanced Video Coding
Duration                         : 1h 58mn
Bit rate mode                    : Variable
Bit rate                         : 2 300 Kbps
Maximum bit rate                 : 16.9 Mbps
Width                            : 1 280 pixels
Height                           : 528 pixels
Display aspect ratio             : 2.40:1
Frame rate mode                  : Constant
Frame rate                       : 23.976 fps
Resolution                       : 24 bits
Colorimetry                      : 4:2:0
Scan type                        : Progressive
Bits/(Pixel*Frame)               : 0.142
Stream size                      : 1.90 GiB (87%)
Writing library                  : x264 core 84 r1400M 20fa784
Encoded date                     : UTC 2011-02-04 12:33:37

Audio
==========
ID                               : 2
Format                           : AAC
Format/Info                      : Advanced Audio Codec
Format version                   : Version 4
Format profile                   : LC
Format settings, SBR             : No
Codec ID                         : 40
Duration                         : 1h 58mn
Bit rate mode                    : Variable
Bit rate                         : 352.8 Kbps
Maximum bit rate                 : 460 Kbps
Channel(s)                       : 6 channels
Channel positions                : Front: L C R, Rear: L R, LFE
Sampling rate                    : 48.0 KHz
Resolution                       : 16 bits
Stream size                      : 293 MiB (13%)
Encoded date                     : UTC 2011-02-04 15:51:20

Subtitles                        : English | Spanish


----------------------------------------------------
IMDB Link: http://www.imdb.com/title/tt1197624/
----------------------------------------------------



Screen Shots:
==============    
http://chattchitto.net/chattchittorg/movies/bdrip/2011/law_abiding_citizen/3.png 
http://chattchitto.net/chattchittorg/movies/bdrip/2011/law_abiding_citizen/4.png 
http://chattchitto.net/chattchittorg/movies/bdrip/2011/law_abiding_citizen/5.png 
http://chattchitto.net/chattchittorg/movies/bdrip/2011/law_abiding_citizen/6.png 
http://chattchitto.net/chattchittorg/movies/bdrip/2011/law_abiding_citizen/7.png



ScreenShots Comparison:
========================= 




Plot:
======
A frustrated man decides to take justice into his own hands after a plea bargain sets one of his family's killers free. He targets not only the killer but also the district attorney and others involved in the deal.



Release Info:
==============
original name .... : Law Abiding Citizen UNRATED Director's Cut 2009 720p BDRip H264 [ChattChitto RG]
ripper.............: Recalled2Life (R2L)
encoder............: Recalled2Life (R2L)
video codec........: H264/.MP4
video bitrate......: 2300 Kbps
audio codec........: AAC-LC
aspect ratio.......: 2.40:1
resolution.........: 1280 x 528
genre..............: Crime | Drama | Thriller
runtime............: 1h 58mn
language...........: English
rating.............: R
subtitles..........: English | Spanish
sample.............: Yes [15.3 MB]
2ch Audio..........: 2ch Audio for XBox Viewers
Compatibility .....: XBox | PS3 | WD Live



Source:
========
Law Abiding Citizen UNRATED Director's Cut 2009 Blu-ray MPEG-4 AVC/Dolby TrueHD-R2L Welcome!



Notes:
=======
ChattChitto RG Encourages Burning this Film with ConvertXtoDVD and Playing with VLC media player.
XBox 360 | PS3 | WD Live - Compatible 
Enhanced for your viewing pleasure ;)